<?xml version="1.0" encoding="utf-8"?>
<!-- Generator: Adobe Illustrator 18.0.0, SVG Export Plug-In . SVG Version: 6.00 Build 0)  -->
<!DOCTYPE svg PUBLIC "-//W3C//DTD SVG 1.1//EN" "http://www.w3.org/Graphics/SVG/1.1/DTD/svg11.dtd">
<svg version="1.1" id="Layer_1" xmlns="http://www.w3.org/2000/svg" xmlns:xlink="http://www.w3.org/1999/xlink" x="0px" y="0px"
	 viewBox="0 0 156.5 81.6" enable-background="new 0 0 156.5 81.6" xml:space="preserve">
<g>
	<path d="M49,25.3c0-3-1.2-5.4-3.7-7.2c-2.5-1.8-5.8-2.7-9.8-2.7c-3.9,0-7,0.7-9.2,2c-2.2,1.4-3.3,3.2-3.3,5.7
		c0,1.7,1.3,3.2,3.8,4.4c2.5,1.2,6.9,2.5,13.2,3.9c12.5,2.8,20.9,5.9,25.2,9.2c4.2,3.3,6.4,8.6,6.4,15.7c0,7.6-3.1,13.7-9.2,18.4
		s-14.3,6.9-24.3,6.9c-11.9,0-21.1-2.3-27.6-6.8C3.9,70.2,0.4,63.5,0,54.8h20.8c0.1,3.6,1.7,6.4,4.7,8.4c3,2,7.1,3,12.3,3
		c4.1,0,7.3-0.7,9.6-2.1c2.3-1.4,3.5-3.4,3.5-5.9c0-1.8-1.1-3.3-3.3-4.5c-2.2-1.2-6.2-2.4-11.8-3.6C22.7,47.2,13.9,44,9.5,40.8
		c-4.4-3.2-6.6-8.2-6.6-15c0-7.7,2.9-13.9,8.6-18.6C17.2,2.4,24.7,0,34.1,0c10.5,0,19,2.3,25.5,6.9c6.5,4.6,9.7,10.8,9.7,18.4H49z"
		/>
	<path d="M86.3,2.1H96h9.8v11.5c0.8-1.4,1.7-2.7,2.6-3.9c5-6.4,12.4-9.6,22-9.6c8.2,0,14.6,2.4,19.2,7.3s6.9,11.6,6.9,20.2v52.2
		h-10.2h-10.3V31.1c0-4.8-1-8.3-3.1-10.7c-2.1-2.3-5.2-3.5-9.5-3.5c-5.4,0-9.5,1.6-12.4,4.8c-2.9,3.2-4.3,7.9-4.3,14v43.8H96.6H86.3
		V2.1z"/>
</g>
</svg>
